<?xml version="1.0" encoding="utf-8"?>
<!-- Generator: Adobe Illustrator 16.0.0, SVG Export Plug-In . SVG Version: 6.00 Build 0)  -->
<!DOCTYPE svg PUBLIC "-//W3C//DTD SVG 1.1//EN" "http://www.w3.org/Graphics/SVG/1.1/DTD/svg11.dtd">
<svg version="1.1" id="Laag_1" xmlns="http://www.w3.org/2000/svg" xmlns:xlink="http://www.w3.org/1999/xlink" x="0px" y="0px"
	 width="292px" height="111.333px" viewBox="-1 0 292 111.333" enable-background="new -1 0 292 111.333" xml:space="preserve">
<path fill="#FFFFFF" d="M80.392,41.871c-0.411-4.896-1.618-9.538-3.713-14c-0.608-1.294-1.24-2.556-2.069-3.725
	c-0.723-1.018-1.782-1.996-2.341-3.112c-0.91-1.274-2.065-2.57-3.234-3.611c-4.318-3.835-9.258-6.958-14.849-8.578
	C49.406,7.46,44.344,7.1,39.408,7.694c-9.45,1.136-18.415,5.761-24.12,13.477c-1.019,1.377-2.145,2.756-3.005,4.241
	c-1.467,2.532-2.634,5.227-3.496,8.024c-1.807,5.867-2.139,12.015-0.87,18.028c0.429,2.031,1.078,3.975,1.792,5.919
	c0.293,0.798,0.639,1.559,1.042,2.307c0.234,0.436,0.459,1.084,0.814,1.438C2.686,65.029-1.996,75.25,0.813,84.528
	c2.675,8.838,11.61,14.813,20.817,13.703c1.521-0.184,3.012-0.559,4.453-1.072c0,0.854,0.687,2.033,1.105,2.75
	c0.592,1.012,1.368,1.916,2.277,2.655c1.81,1.474,4.118,2.251,6.45,2.187c4.507-0.125,8.444-3.437,9.314-7.865
	c0.912-4.637-1.702-9.321-6.088-11.045c-0.269-0.104-1.367-0.324-1.287-0.567c0.181-0.55,0.347-1.112,0.503-1.67
	c0.174-0.621,0.301-1.248,0.381-1.888c0.046-0.371,0.109-0.735,0.15-1.105c0.066-0.595,0.365-0.387,0.879-0.359
	c3.103,0.158,6.038,0.396,9.141,0c5.824-0.744,11.262-3.035,16.071-6.383c2.39-1.662,4.671-3.59,6.52-5.848
	c0.882-1.078,1.826-2.182,2.574-3.357c0.789-1.184,1.413-2.392,2.123-3.608c1.352-2.318,0.716-5.924-1.161-7.773
	c-1.928-1.9-4.785-2.473-7.348-1.661c-2.743,0.87-3.73,3.6-5.255,5.748c-1.554,2.188-3.75,4.064-5.975,5.547
	c-7.741,5.16-18.033,4.858-25.658-0.356c-8.304-5.681-12.075-16.417-8.891-26.025c1.442-4.352,4.279-8.217,7.859-11.059
	c3.755-2.921,8.396-4.569,13.138-4.834c4.777-0.268,9.796,1.136,13.752,3.823c2.1,1.426,3.975,3.15,5.462,5.213
	c0.621,0.861,1.182,1.763,1.783,2.638c0.651,0.947,1.309,1.983,1.368,3.165c-3.167,0-6.337,0.047-9.504-0.002
	c-2.744-0.043-5.643-0.575-8.238,0.604c-2.049,0.932-3.629,2.926-4.083,5.132c-0.442,2.146,0.641,4.48,2.099,6.043
	c1.972,2.114,5.135,1.917,7.766,1.892c3.272-0.032,6.544,0.01,9.817,0.02c2.547,0.008,5.094,0.002,7.642,0.002
	c2.4,0,5.127,0.063,7.191-1.379C79.843,46.475,80.552,44.075,80.392,41.871 M28.941,95.204c0-3.705,3.064-6.771,6.77-6.771
	s6.77,3.064,6.77,6.771c0,3.705-3.064,6.771-6.77,6.771C32.033,101.973,28.941,98.881,28.941,95.204 M19.463,65.942
	c4.489,0,8.747,2.376,11.119,6.186c2.407,3.865,2.608,8.847,0.52,12.892c-2.046,3.963-6.078,6.677-10.524,7.054
	c-4.5,0.379-8.959-1.643-11.644-5.271c-2.926-3.957-3.367-9.383-1.108-13.758C10.051,68.727,14.606,65.942,19.463,65.942
	 M65.122,35.853h0.075C65.272,35.853,65.197,35.853,65.122,35.853"/>
<path fill="#FFFFFF" d="M257.387,58.57c-1.627,0-3.27-0.073-4.895,0.017c-1.209,0.066-2.615,0.363-3.313,1.461
	c-0.568,0.9-0.607,2.334-0.234,3.315c0.943,2.481,5.285,2.538,7.096,1.103C257.766,63.098,257.387,60.518,257.387,58.57z
	 M260.998,68.124c-1.336,0-2.42-0.826-2.934-2.031c-2.951,3.296-10.744,3.012-12.459-1.484c-0.766-2.007-0.584-4.74,0.82-6.423
	c1.52-1.819,4.1-2.247,6.342-2.247c1.332,0,2.666,0,4,0c0.584,0,0.619,0.121,0.619-0.489c0-1.082-0.014-2.186-0.354-3.226
	c-0.791-2.418-3.814-2.403-5.887-1.92c-1.063,0.248-2.42,1.321-3.514,0.974c-1.213-0.386-1.311-2.106-0.25-2.711
	c1.564-1.017,3.482-1.35,5.318-1.417c1.836-0.066,3.836,0.074,5.453,1.034c2.648,1.572,2.842,4.98,2.842,7.738
	c0,2.152,0,4.302,0,6.453c0,1.002,0.023,2.24,0.947,2.861C263.465,66.254,262.764,68.124,260.998,68.124 M241.064,67.597
	c-0.861,0.86-2.346,0.622-2.906-0.462c-0.201-0.389-0.178-0.819-0.178-1.241c0-1.229,0-2.462,0-3.692c0-2.482,0-4.967,0-7.45
	c0-2.252-0.705-4.205-3.205-4.429c-1.133-0.101-2.348,0.025-3.393,0.493c-0.6,0.268-2.205,1.255-2.205,2.042c0,2.263,0,4.525,0,6.79
	c0,2.185,0.133,4.414,0,6.595c0,2.404-3.607,2.299-3.607-0.093c0-0.899,0-1.799,0-2.698c0-3.06,0-6.119,0-9.178
	c0-0.725,0.035-1.459-0.01-2.183c-0.076-1.229-0.594-1.679-1.479-2.376c-0.779-0.615-0.578-2.071,0.311-2.477
	c1.623-0.741,3.412,0.557,4.033,2.006c2.373-2.609,7.25-3.419,10.309-1.552c2.402,1.467,2.781,4.428,2.781,6.999
	c0,2.367,0,4.735,0,7.103c0,1.129,0,2.256,0,3.383C241.516,66.026,241.633,66.888,241.064,67.597 M216.242,58.57
	c-1.627,0-3.27-0.073-4.895,0.017c-1.209,0.066-2.615,0.363-3.313,1.461c-0.568,0.9-0.607,2.334-0.234,3.315
	c0.941,2.481,5.285,2.538,7.096,1.103C216.621,63.098,216.242,60.519,216.242,58.57z M219.928,68.124
	c-1.34,0-2.418-0.828-2.936-2.031c-2.949,3.298-10.742,3.01-12.459-1.484c-0.766-2.006-0.584-4.74,0.82-6.423
	c1.521-1.817,4.1-2.247,6.342-2.247c1.334,0,2.666,0,4,0c0.584,0,0.619,0.121,0.619-0.489c0-1.082-0.012-2.187-0.352-3.226
	c-0.791-2.417-3.816-2.403-5.889-1.92c-1.063,0.248-2.42,1.321-3.512,0.974c-1.213-0.386-1.309-2.105-0.252-2.711
	c1.564-1.017,3.484-1.35,5.32-1.417s3.836,0.074,5.453,1.034c2.646,1.571,2.842,4.98,2.842,7.738c0,2.117,0,4.234,0,6.352
	c0,0.979-0.018,2.138,0.783,2.836c0.654,0.573,1.225,0.92,0.939,1.918C221.424,67.821,220.699,68.124,219.928,68.124
	 M198.113,55.034c0-1.437-0.246-3.053-1.316-4.105c-1.012-0.992-2.527-1.189-3.879-1.046c-1.352,0.142-2.564,0.778-3.205,2.012
	c-0.324,0.626-0.488,1.324-0.566,2.021c-0.023,0.215-0.256,1.595-0.059,1.796c0.172,0.177,1.453,0,1.689,0c1.184,0,2.365,0,3.549,0
	c1.045,0,2.088,0,3.131,0c0.236,0,0.473,0,0.709,0C198.264,55.711,198.156,55.074,198.113,55.034z M201.572,57.215
	c0,1.453-1.207,1.43-2.275,1.43c-1.396,0-2.791,0-4.188,0c-1.51,0-3.02,0-4.527,0c-0.432,0-0.861,0-1.291,0
	c-0.441,0-0.279,0.208-0.279,0.658c0,1.729,0.158,3.693,1.598,4.876c1.707,1.399,4.496,1.053,6.451,0.493
	c1.053-0.301,2.475-1.448,3.385-0.312c1.045,1.046-0.012,2.22-0.994,2.675c-2.379,1.102-5.211,1.521-7.803,1.094
	c-4.313-0.713-6.246-4.551-6.246-8.621c0-3.057-0.381-6.5,1.395-9.169c2.297-3.455,7.65-4.186,11.146-2.166
	c1.725,0.996,2.793,2.755,3.207,4.669c0.211,0.979,0.273,1.981,0.273,2.981C201.424,56.12,201.26,57.209,201.572,57.215z
	 M178.256,54.959c0-1.865-0.553-3.868-2.439-4.616c-0.926-0.366-2.018-0.44-2.992-0.266c-0.629,0.113-1.236,0.339-1.799,0.644
	c-0.238,0.129-1.42,0.738-1.42,1.022c0,2.473,0,4.946,0,7.417c0,1.191,0,2.383,0,3.575c0,0.509,0.27,0.651,0.699,0.995
	c1.025,0.816,2.281,1.23,3.588,1.23c4.152,0,4.363-4.004,4.363-7.203C178.256,56.827,178.256,55.893,178.256,54.959z
	 M174.494,68.124c-1.881,0-3.461-0.525-4.891-1.58c0,2.32,0,4.641,0,6.961c0,2.402-3.609,2.524-3.609,0.106c0-0.495,0-0.991,0-1.487
	c0-5.762,0-11.521,0-17.283c0-1.183,0.162-2.575-0.127-3.737c-0.32-1.296-2.602-2.108-1.371-3.655
	c1.174-1.475,3.717-0.008,4.355,1.268c2.84-2.065,7.348-2.641,10.289-0.402c2.295,1.747,2.648,4.741,2.648,7.423
	c0,2.631,0.232,5.42-0.641,7.944C180.119,66.653,177.564,68.124,174.494,68.124 M157.645,55.411c0-1.878-0.527-3.936-2.391-4.767
	c-1.617-0.721-4.008-0.635-5.404,0.529c-2.211,1.841-1.533,5.842-1.533,8.402c0,1.738,0.404,3.688,2.025,4.629
	c1.539,0.894,3.953,0.877,5.449-0.105c2.561-1.684,1.854-5.874,1.854-8.506C157.645,55.531,157.645,55.471,157.645,55.411z
	 M159.375,65.565c-2.961,3.43-9.754,3.43-12.713,0c-2.395-2.814-1.956-6.686-1.956-10.125c0-2.265,0.545-4.618,2.131-6.316
	c1.662-1.781,4.115-2.341,6.475-2.284c2.344,0.057,4.744,0.792,6.24,2.696c1.367,1.738,1.779,3.915,1.779,6.076
	C161.332,58.984,161.719,62.808,159.375,65.565 M142.074,50.597c-1.136,0-2.169-0.347-3.316-0.095
	c-0.975,0.214-1.842,0.74-2.432,1.551c-0.699,0.965-0.872,1.933-0.872,3.063c0,2.965,0,5.928,0,8.893c0,0.793,0,1.586,0,2.381
	c0,2.384-3.61,2.322-3.61-0.057c0-2.42,0-4.84,0-7.26c0-2.172,0-4.344,0-6.517c0-0.914-0.244-1.95-1.08-2.456
	c-0.809-0.49-1.242-1.503-0.568-2.351c0.597-0.751,1.765-0.601,2.541-0.288c1.084,0.437,1.847,1.305,2.267,2.383
	c1.573-2.185,4.059-3.096,6.697-2.806c1.16,0.128,2.555,0.511,2.555,1.902c0,0.59-0.268,1.106-0.725,1.479
	C142.97,50.875,142.63,50.597,142.074,50.597 M125.976,68.124c-1.536,0-2.572-1.01-3.16-2.332
	c-2.646,2.779-8.633,3.619-11.405,0.545c-1.914-2.121-1.683-5.176-1.683-7.84c0-2.939,0-5.879,0-8.819
	c0-1.23,0.178-2.691,1.805-2.691c1.645,0,1.805,1.481,1.805,2.72c0,2.94,0,5.881,0,8.822c0,0.943-0.045,1.909,0.043,2.851
	c0.094,0.994,0.368,2.094,1.196,2.733c0.962,0.744,2.344,0.779,3.5,0.656c1.031-0.11,2.046-0.448,2.846-1.127
	c0.414-0.351,1.215-1.121,1.215-1.706c0-0.922,0-1.844,0-2.764c0-3.002,0-6.002,0-9.003c0-0.547-0.054-1.13,0.019-1.676
	c0.292-2.185,3.592-1.823,3.592,0.333c0,1.956,0,3.911,0,5.866c0,2.471,0,4.939,0,7.411c0,0.927-0.034,1.925,0.58,2.69
	c0.623,0.777,1.428,0.795,1.381,2.002C127.673,67.77,126.847,68.124,125.976,68.124 M102.206,55.034
	c0-1.437-0.246-3.053-1.318-4.105c-1.01-0.992-2.526-1.189-3.878-1.046c-1.351,0.142-2.563,0.777-3.204,2.012
	c-0.325,0.625-0.489,1.324-0.567,2.021c-0.024,0.215-0.255,1.595-0.059,1.796c0.173,0.177,1.454,0,1.69,0c1.184,0,2.367,0,3.551,0
	c1.043,0,2.087,0,3.131,0c0.236,0,0.472,0,0.708,0C102.358,55.711,102.253,55.075,102.206,55.034z M105.741,57.215
	c0,1.453-1.208,1.43-2.278,1.43c-1.396,0-2.791,0-4.186,0c-1.509,0-3.019,0-4.528,0c-0.43,0-0.86,0-1.29,0
	c-0.441,0-0.279,0.208-0.279,0.658c0,1.729,0.157,3.693,1.598,4.876c1.707,1.399,4.495,1.053,6.45,0.493
	c1.053-0.301,2.475-1.448,3.385-0.312c1.048,1.044-0.013,2.22-0.994,2.675c-2.379,1.102-5.209,1.521-7.802,1.094
	c-4.312-0.713-6.248-4.551-6.248-8.621c0-3.057-0.381-6.5,1.395-9.169c2.296-3.454,7.651-4.186,11.146-2.166
	c1.723,0.996,2.794,2.755,3.207,4.669c0.211,0.979,0.275,1.981,0.275,2.981C105.591,56.12,105.43,57.208,105.741,57.215z"/>
<path fill="#FFFFFF" d="M181.715,35.778c0-2.474,0-4.948,0-7.422c0-0.522,0-1.044,0-1.566c0-0.668,0.326-0.424,0.979-0.641
	c1.201,0,2.445-0.439,3.428,0.541c0.779,0.78,0.785,2.2,0.785,3.229c0,1.217,0,2.434,0,3.65c0,0.632,0,1.265,0,1.897
	c0,0.527,0.098,0.387,0.645,0.387c0.135,0,1.387,0.038,1.387-0.032c0-0.484,0-0.967,0-1.451c0-1.479,0-2.958,0-4.438
	c0-1.423-0.02-3.086-0.979-4.234c-1.469-1.763-4.207-1.688-6.168-0.903v-5.792c-0.23,0.042-2.029,0.289-2.029,0.404
	c0,0.482,0,0.964,0,1.446c0,2.3,0,4.6,0,6.899c0,2.234,0,4.467,0,6.701c0,0.482,0,0.964,0,1.446
	C179.76,35.847,181.729,36.155,181.715,35.778z M173.217,20.959c-0.205,0.038-2.033,0.31-2.033,0.381c0,0.515,0,1.03,0,1.545
	c0,2.143,0,4.286,0,6.428c0,1.675-0.408,4.4,0.828,5.637c1.105,1.378,3.238,1.43,4.813,0.978c0.561-0.16,1.109-0.138,0.971-0.75
	c-0.098-0.427-0.195-0.854-0.291-1.281c-1.582,0.781-3.885,0.919-4.258-1.213c-0.195-1.116-0.105-2.305-0.105-3.434
	c0-1.005,0-2.011,0-3.016c0-0.02,2.775-0.01,2.998-0.01c0.414,0,0.828,0,1.244,0c0.098,0,0.045-1.135,0.045-1.279
	c0-0.494,0.102-0.526-0.375-0.526c-0.621,0-1.244,0-1.867,0c-0.594,0-1.186,0-1.779,0c-0.373,0-0.266-0.093-0.266-0.468
	C173.139,23.423,172.859,21.223,173.217,20.959z M168.174,22.012c1.18-1.174-0.574-3.188-1.805-1.956
	C165.195,21.229,166.941,23.254,168.174,22.012 M168.252,24.419c-0.572,0-1.145,0-1.717,0c-0.377,0-0.316-0.008-0.316,0.347
	c0,1.192,0,2.383,0,3.575c0,2.473,0,4.945,0,7.418c0-0.164,2.033,0.4,2.033-0.195c0-1.111,0-2.223,0-3.334c0-2.58,0-5.16,0-7.74
	C168.252,24.467,168.252,24.443,168.252,24.419z M160.803,35.778c1.631-3.625,2.857-7.489,3.762-11.358c-0.479,0-0.961,0-1.439,0
	c-0.215,0-0.428,0-0.643,0c-0.084,0-0.336,1.411-0.373,1.566c-0.6,2.483-1.313,4.994-2.209,7.385
	c-0.584-1.75-1.139-3.493-1.65-5.265c-0.279-0.964-0.498-1.951-0.715-2.931c-0.174-0.791-0.109-0.68-0.883-0.68
	c-0.512,0-0.92-0.196-1.039,0.339c-0.219,0.975-0.512,1.927-0.752,2.896c-0.469,1.874-0.943,3.873-1.73,5.642
	c-0.992-2.318-1.6-4.929-2.207-7.372c-0.131-0.523-0.244-1.05-0.352-1.579c-0.086-0.068-0.52,0-0.623,0c-0.52,0-1.039,0-1.559,0
	c0.529,1.983,1.105,3.954,1.705,5.917c0.314,1.03,0.66,2.049,1.051,3.054c0.107,0.275,0.801,2.388,1.035,2.388
	c0.438,0,0.873,0,1.311,0c0.703,0,0.727-0.929,0.943-1.529c0.744-2.068,1.471-4.159,2.004-6.293
	c0.563,2.129,1.258,4.223,2.006,6.293c0.203,0.564,0.244,1.529,0.91,1.529C159.84,35.778,160.32,35.778,160.803,35.778z
	 M134.927,29.007c0.312-1.554,1.209-3.083,3.009-3.083c1.762,0,2.633,1.554,2.633,3.159c-0.974,0-1.946,0-2.919,0
	C137.138,29.083,135.231,29.345,134.927,29.007z M133.046,32.468c0.772,2.576,3.281,3.613,5.791,3.529
	c0.373-0.012,3.086-0.238,2.994-0.767c-0.096-0.545-0.191-1.089-0.285-1.634c-1.123,0.75-3.223,0.693-4.451,0.34
	c-1.59-0.458-2.129-1.917-2.318-3.424c1.455,0,2.91,0,4.365,0c0.892,0,1.783,0,2.675,0c0.718,0,0.716,0.089,0.708-0.677
	c0-1.502-0.196-3.172-1.204-4.362c-1.013-1.199-2.677-1.599-4.19-1.382C133.132,24.662,131.902,29.05,133.046,32.468
	 M128.307,24.946c-2.094-1.4-5.31-0.868-6.804,1.133c-1.62,2.17-1.576,5.772-0.033,7.948c1.694,2.389,4.774,2.307,7.351,1.831
	c0.31-0.057,1.441-0.044,1.441-0.456c0-0.327,0-0.653,0-0.979c0-5.153,0-10.307,0-15.46c0-0.037,0-0.073,0-0.11
	c-0.669,0.124-1.338,0.248-2.007,0.372c-0.084,0.016-0.023,1.313-0.023,1.428c0,0.957,0,1.914,0,2.87
	C128.233,23.859,128.102,24.753,128.307,24.946z M128.307,34.048c-1.243,0.415-3.031,0.407-4.16-0.302
	c-1.145-0.718-1.574-1.983-1.625-3.279c-0.057-1.458,0.17-3.144,1.444-4.059c1.209-0.869,2.983-0.513,4.145,0.261
	c0.349,0.232,0.196,0.796,0.196,1.177c0,0.831,0,1.662,0,2.493C128.307,31.575,128.307,32.812,128.307,34.048z M111.683,24.344
	c-0.587,0.073-1.319,0.079-1.227,0.75c0.058,0.427,0.117,0.854,0.175,1.281c1.165-0.388,2.74-0.709,3.939-0.307
	c1.422,0.478,1.401,1.923,1.401,3.166c-0.776,0-1.557-0.251-2.363-0.22c-0.85,0.033-1.778,0.205-2.554,0.565
	c-1.77,0.821-2.402,3.237-1.407,4.881c0.995,1.643,3.194,1.825,4.933,1.663c0.991-0.092,1.966-0.241,2.949-0.4
	c0.521-0.084,0.474-0.058,0.474-0.514c0-2.042,0-4.085,0-6.127c0-1.063-0.02-2.185-0.594-3.121
	C116.326,24.196,113.518,23.886,111.683,24.344 M111.985,33.897c-1.45-0.967-0.468-2.927,0.902-3.307
	c0.769-0.213,1.698-0.235,2.482-0.078c0.605,0.151,0.677,0.017,0.677,0.608c0,0.935,0,1.869,0,2.803
	C116.047,34.498,112.484,34.229,111.985,33.897 M91.675,35.778c0.571,0,1.142,0,1.713,0c0.402,0,0.317-0.027,0.317-0.411
	c0-1.323,0-2.646,0-3.968c0-1.451,0-2.902,0-4.353c0-0.272,0-0.544,0-0.816c0-0.385,3.198-0.174,3.535-0.005
	c1.534,0.766,1.204,3.051,1.204,4.502c0,1.478,0,2.956,0,4.433c0,0.29-0.138,0.618,0.188,0.618c0.29,0,1.662,0.193,1.843,0
	c0.107-0.114,0-0.85,0-0.999c0-0.799,0-1.599,0-2.397c0-1.244,0.041-2.497-0.009-3.74c-0.027-0.664-0.183-1.313-0.292-1.965
	c0.351-0.35,0.915-0.549,1.382-0.672c1.138-0.298,2.379-0.257,3.131,0.747c0.669,1.33,0.452,3.017,0.452,4.474
	c0,1.399,0,2.799,0,4.199c0,0.456,2.031,0.251,2.031,0.078c0-1.352,0-2.704,0-4.055c0-1.45,0.009-2.874-0.151-4.319
	c-0.324-2.896-3.435-3.536-5.82-2.783c-0.596,0.188-1.154,0.401-1.677,0.749c-0.062,0.041-1.347-0.752-1.648-0.85
	c-1.539-0.496-3.329-0.117-4.874,0.156c-0.833,0.147-1.176-0.018-1.176,0.768c0,0.672,0,1.344,0,2.017c0,1.902,0,3.805,0,5.708
	C91.825,33.241,91.999,35.779,91.675,35.778z"/>
</svg>
