<?xml version="1.0" encoding="utf-8"?>
<!-- Generator: Adobe Illustrator 16.0.0, SVG Export Plug-In . SVG Version: 6.00 Build 0)  -->
<!DOCTYPE svg PUBLIC "-//W3C//DTD SVG 1.1//EN" "http://www.w3.org/Graphics/SVG/1.1/DTD/svg11.dtd">
<svg version="1.1" id="Layer_1" xmlns="http://www.w3.org/2000/svg" xmlns:xlink="http://www.w3.org/1999/xlink" x="0px" y="0px"
	 width="310.969px" height="298.634px" viewBox="0 0 310.969 298.634" enable-background="new 0 0 310.969 298.634"
	 xml:space="preserve">
<g>
	<defs>
		<rect id="SVGID_1_" width="310.969" height="298.634"/>
	</defs>
	<clipPath id="SVGID_2_">
		<use xlink:href="#SVGID_1_"  overflow="visible"/>
	</clipPath>
	<path clip-path="url(#SVGID_2_)" fill="#FFFFFF" d="M71.233,97.957l-0.079,0.016c-0.596,3.011-1.282,6.37-2.284,9.795l-4.37,15.099
		l14.66-3.117l-5.251-13.464C72.929,103.611,72.01,100.84,71.233,97.957"/>
	<path clip-path="url(#SVGID_2_)" fill="#FFFFFF" d="M124.537,88.688c-0.788-3.705-3.492-5.191-8.852-4.051
		c-1.892,0.401-3.53,0.833-4.521,1.208l0.35,15.99c0.727-0.071,1.689-0.194,3.502-0.579
		C121.793,99.815,125.81,94.677,124.537,88.688"/>
	<path clip-path="url(#SVGID_2_)" fill="#FFFFFF" d="M40.313,107.495c-0.821-3.861-3.52-6.089-9.273-4.866
		c-1.813,0.385-2.916,0.619-4.082,0.95l0.443,18.359c0.917,0.052,1.862-0.149,2.887-0.367
		C37.146,120.114,41.653,113.801,40.313,107.495"/>
	<path clip-path="url(#SVGID_2_)" fill="#FFFFFF" d="M251.896,61.616c-0.787-3.705-3.492-5.19-8.851-4.051
		c-1.893,0.401-3.53,0.833-4.522,1.208l0.352,15.99c0.726-0.071,1.688-0.194,3.502-0.579
		C249.153,72.743,253.169,67.605,251.896,61.616"/>
	<path clip-path="url(#SVGID_2_)" fill="#FFFFFF" d="M306.385,48.423c2.29-2.593,4.083-7.209,4.543-12.261
		c0.448-5.041-2.847-7.924-3.925-8.651c-1.092-0.715-4.12-1.527-7.027-3.041c-2.799-1.478-10.941-2.266-15.63-2.629
		c-4.688-0.364-9.414,0.145-14.114-0.885c-3.041-0.666-5.889-2.18-14.272-6.239c-8.372-4.047-20.937,0.763-28.108,3.61
		c-3.55,1.406-5.404,4.774-7.475,8.554c-2.072,3.792-14.503,7.657-20.815,9.559c-6.3,1.89-36.032,6.034-41.169,6.385
		c-5.137,0.364-29.914,2.532-32.349,2.884c-2.423,0.363-7.56,0.908-10.626,2.435c-0.181-0.993-0.727-2.968-0.363-5.319
		c0.363-2.338-0.715-5.755-1.26-8.917c-0.545-3.15-6.397-5.04-8.917-5.949c-2.52-0.896-6.131-2.605-8.833-2.605
		c-2.701,0-7.208,5.137-8.65,6.846c-1.442,1.708-10.359,8.65-12.431,10.54c-2.072,1.89-3.247,3.514-6.215,7.209
		c-2.969,3.695-11.086,12.249-13.788,15.496c-2.702,3.247-4.325,9.099-5.488,11.171c-1.175,2.072-3.792,5.767-6.131,8.832
		c-2.338,3.065-2.338,0.994-2.253,0.182s0.896-3.065,2.617-6.397c1.708-3.332,4.046-9.644,6.397-12.71
		c2.338-3.065,2.75-5.864,5.537-8.287c2.798-2.435,4.373-5.948,5.9-8.287c1.527-2.338-2.254-3.344-3.247-1.987
		c-0.981,1.345-2.859,3.114-4.568,5.186c-1.72,2.072-5.464,5.888-7.536,7.063c-2.071,1.163-2.58,1.175-2.665-0.085
		c-0.097-1.26,0.145-2.52,0.594-6.3c0.448-3.792-0.267-9.196,0.181-11.8c0.449-2.617,1.163-7.5,1.079-9.935
		c-0.085-2.436,1.066-9.741,1.066-11.898c0-2.169-0.763-3.95-0.763-6.567c0-2.604-1.091-8.323-2.436-11.74
		c-1.357-3.428-4.592-1.575-4.228,0.764c0.363,2.338,0.824,6.784,1.357,10.298c0.545,3.513-0.412,8.796-0.412,12.673
		c0,3.865-2.69,10.613-3.853,13.763c-1.175,3.163-2.665,9.366-9.075,11.195c-0.63,0.182-3.392,1.757-4.288,0.582
		c-0.897-1.163-0.618-5.549-2.072-12.964c-1.527-7.778-4.362-0.412-4.362,1.757v13.242c0,3.417-1.26,8.651-1.89,10.989
		c-0.63,2.338-3.78,19.094-3.61,23.783c0.181,4.689-0.533,6.761-0.8,10.359c-0.279,3.611-4.059,13.873-5.052,18.016
		c-0.994,4.144,0,10.722,1.26,12.079c1.26,1.345,2.253,2.254,5.052,6.131c2.105,2.919,4.575,3.688,6.357,3.89L16.72,97.271
		c4.285-1.158,8.919-2.226,14.279-3.366c10.325-2.194,17.635,1.194,19.512,10.022c2.547,11.981-6.101,23.622-19.421,26.453
		c-0.945,0.202-2.301,0.407-3.58,0.596l0.441,19.514l-2.353,0.5c0.018,5.765,4.065,10.519,4.586,11.489
		c0.545,0.993,10.359,7.839,11.631,8.65c1.26,0.812,14.95,5.404,16.21,5.767c1.26,0.353,3.72,0.801,2.169,1.709
		c-2.435,1.417-11.982-1.624-11.982-1.624L37.21,172.39l-11.886-2.52c0,0-8.117-1.175-8.469-1.175c-0.363,0-1.987,0.545-5.052,0.545
		s-6.93,5.488-8.917,7.656c-1.987,2.157-2.702,5.125-2.884,7.84c-0.181,2.701,8.021,23.152,8.566,25.854
		c0.533,2.702,7.112,22.971,13.061,35.584c5.949,12.612,16.029,10.989,18.913,12.249c2.883,1.26,28.29,9.559,32.348,9.91
		c4.059,0.364,13.873,4.059,19.822,7.839c5.948,3.792,16.671,6.579,17.567,7.027c0.897,0.447,8.021,4.604,8.651,5.501
		c0.63,0.896,6.942,5.402,10.274,8.832c3.332,3.417,3.477-2.047,2.75-3.842c-0.715-1.805-4.228-4.869-5.585-7.123
		c-1.345-2.254-4.216-2.848-7.56-5.318c-3.332-2.448-4.507-3.417-5.682-6.119c-1.164-2.702-0.328-3.186,2.192-3.731
		c2.533-0.533,4.059,0.098,6.313,0.363c2.253,0.268,5.585,0.085,8.832,1.26c3.235,1.176,12.976,4.955,15.314,4.955
		c2.339,0,6.216,0,8.736,1.624c2.52,1.623,8.565,2.617,11.086,2.884c2.52,0.267,7.39,2.436,8.917,3.695
		c1.526,1.26,9.547,4.507,14.502,6.033c4.955,1.527,2.254-2.883,1.175-3.61c-1.078-0.715-3.331-1.975-5.137-3.053
		c-1.805-1.091-5.04-4.326-7.475-5.053c-2.436-0.714-4.871-0.993-9.365-3.331c-4.507-2.339-5.138-3.78-10.093-4.689
		c-4.956-0.896-5.137-1.163-9.462-3.514c-4.325-2.338-10.456-3.78-12.613-3.962c-2.168-0.181-9.547-2.071-10.904-2.883
		c-1.357-0.813-6.033-2.968-8.287-4.858c-2.253-1.89,0.448-2.302,2.435-3.199c1.975-0.908,5.041-0.63,7.658-0.097
		c2.604,0.545,3.416,0.727,5.67,0.727c2.253,0,5.585,0.897,10.904,1.442c5.319,0.533,2.338-3.562,1.175-4.192
		c-1.175-0.63-3.61-1.077-5.864-1.077c-2.254,0-25.94-7.125-27.745-7.658c-1.805-0.545-7.839-0.63-10.904-1.175
		s-11.171-2.072-15.944-2.617c-4.774-0.533-10.904-0.715-15.945-1.078c-5.052-0.364-11.534-2.617-13.787-3.15
		c-2.254-0.545-12.879-4.24-15.411-6.396c-2.52-2.169-7.027-9.826-7.924-12.432c-0.896-2.616-4.228-11.171-4.774-13.424
		c-0.545-2.254,0.63-1.986,1.624-1.539c0.993,0.448,7.112,3.695,8.554,4.774c1.441,1.09,23.25,12.976,27.478,14.236
		c4.24,1.26,29.102,11.448,37.486,15.229c8.372,3.78,28.29,10.177,40.624,13.424c12.346,3.247,17.398-3.428,21.99-9.195
		c4.593-5.755,1.891-11.886-0.812-19.276c-2.702-7.39-6.761-15.859-9.365-20.633c-2.617-4.773-8.566-12.164-12.795-19.725
		c-4.24-7.571-16.852-18.379-17.846-19.19c-0.981-0.813-0.351-0.813,0.545-0.813c0.897,0,0.63-0.266,6.131,1.176
		c5.488,1.441,19.542,1.526,26.848,0.17c7.294-1.346,21.979-7.027,23.783-7.84c1.793-0.8,2.157-1.441,2.605-0.266
		c0.46,1.175,17.665,10.819,19.373,11.8c1.708,0.994,18.742,12.262,21.178,14.055c2.423,1.806,14.054,5.053,16.126,6.131
		s9.632,4.325,12.249,4.059c2.617-0.279,7.754-3.344,10.904-3.696c3.149-0.362,6.663,0.994,8.554,0
		c1.89-0.992,4.773-2.616,6.845-2.435c2.084,0.182,5.501,1.527,7.839,1.357c2.352-0.183,3.489-0.981,7.101,1.006
		c3.598,1.975,4.615-1.285,4.083-1.999c-0.545-0.728-2.436-1.722-3.611-2.981c-1.175-1.26-8.287-4.41-10.358-4.495
		c-2.071-0.097-12.612-0.362-15.314-0.181c-2.701,0.181-0.63-2.169,0.994-2.981c1.61-0.812,3.962-1.623,6.481-2.435
		c2.521-0.8,6.846-3.962,7.923-5.222c1.092-1.261,5.684-2.338,7.937-2.605c2.254-0.279,4.325-1.805,6.215-2.799
		c1.891-0.993,4.508-0.812,8.106,1.26c3.609,2.072,3.513-1.805,3.149-2.617c-0.351-0.799-1.526-1.344-3.149-2.7
		c-1.624-1.346-3.877-1.612-5.853-1.709c-1.987-0.084-8.65,1.176-9.911,1.538c-1.26,0.352-11.981,3.963-13.787,4.495
		c-1.806,0.545-10.626,3.514-11.533,3.61c-0.897,0.085-1.346,0.533-1.709-0.097s-0.267-0.352-0.363-1.708
		c-0.085-1.357,1.708-3.695,2.617-6.301c0.896-2.616,2.52-3.161,5.585-6.046c3.064-2.883-0.728-3.235-3.962-3.149
		c-3.247,0.085-5.053,2.799-6.494,5.137c-1.441,2.339-6.931,7.476-7.742,8.469c-0.812,0.994-1.441-0.362-1.623-0.993
		c-0.182-0.63-0.727-3.065-0.727-4.688c0-1.612-1.007-3.938-2.157-5.125c-0.728-0.751-0.569-1.515-1.49-3.659
		c-0.957-2.254-0.763-2.132-0.606-5.488c0.135-2.945-2.446-4.58-3.937-1.491c-1.079,2.23-1.624,6.131-1.357,7.839
		s3.695,13.424,3.963,14.503c0.277,1.078-0.183,0.993-0.716,0.545c-0.545-0.448-2.701-3.332-7.476-9.826
		c-4.773-6.482-9.014-10.359-14.332-13.242c2.35-1.442,6.942-6.397,10.007-9.463c3.065-3.053,8.554-12.697,10.262-15.314
		c1.722-2.605,4.325-7.924,6.858-12.879c0.43-0.847,1.059-1.794,1.813-2.797l-11.747-15.598l-0.395,0.083l0.496,22.878
		l-10.088,2.144l-1.221-55.347c4.128-1.124,8.999-2.243,14.673-3.449c11.587-2.462,17.647,0.862,19.29,8.587
		c2.01,9.458-3.316,17.346-12.873,21.602c1.393,1.515,2.87,3.426,4.313,5.179l4.797,5.885c2.617-2.615,5.268-5.106,7.248-7.013
		c3.196-3.077,9.78-7.787,14.918-11.372c-4.458-1.76-9.153-4.073-10.541-10.599c-2.043-9.615,3.309-19.32,17.181-22.269
		c3.074-0.654,5.787-1.065,8.899-1.15l0.193,9.433c-2.707-0.332-5.55-0.138-7.756,0.331c-6.779,1.441-8.896,5.433-8.144,8.978
		c0.929,4.366,5.897,5.471,10.682,7.61c2.805-2.287,5.704-4.835,7.268-6.454C300.836,55.086,303.792,53.608,306.385,48.423
		 M85.8,138.194l-3.888-10.544l-19.705,4.189l-3.363,12.085l-10.483,2.228l17.066-59.234l11.35-2.413l19.822,51.393L85.8,138.194z
		 M127.019,129.432l-14.92-19.812l-0.395,0.084l0.497,22.878l-10.089,2.144l-1.22-55.347c4.128-1.124,8.998-2.243,14.672-3.449
		c11.586-2.462,17.648,0.862,19.289,8.587c2.011,9.458-3.314,17.346-12.872,21.602c1.393,1.515,2.871,3.426,4.313,5.179L139,126.885
		L127.019,129.432z M172.178,119.833l-16.384-23.209l0.541,26.576l-10.009,2.128l-1.221-55.347l10.01-2.128l0.557,25.09
		l14.813-28.357l12.849-2.731L165.71,93.28l19.001,23.889L172.178,119.833z M191.483,115.729l-1.219-55.347l28.296-6.015
		l0.249,8.927l-18.285,3.887l0.258,13.62l17.419-3.703l0.121,8.707l-17.34,3.686l0.385,14.993l18.209-3.871l0.204,9.101
		L191.483,115.729z"/>
</g>
</svg>
