<?xml version="1.0" encoding="utf-8"?>
<!-- Generator: Adobe Illustrator 16.0.0, SVG Export Plug-In . SVG Version: 6.00 Build 0)  -->
<!DOCTYPE svg PUBLIC "-//W3C//DTD SVG 1.1 Tiny//EN" "http://www.w3.org/Graphics/SVG/1.1/DTD/svg11-tiny.dtd">
<svg version="1.1" baseProfile="tiny" id="Layer_1" xmlns="http://www.w3.org/2000/svg" xmlns:xlink="http://www.w3.org/1999/xlink"
	 x="0px" y="0px" width="370.481px" height="246.479px" viewBox="0 0 370.481 246.479" overflow="scroll" xml:space="preserve">
<g>
	<path fill="#595959" d="M261.995,75.515c-4.978,0-9.027,4.049-9.027,9.027c0,20.942-3.756,21.607-17.728,24.081
		c-1.378,0.242-2.799,0.498-4.262,0.775c-16.603,3.174-25.021,14.236-25.021,32.961c0,2.13,0,4.142,0.614,5.746
		c0.56,1.459,1.896,3.198,5.087,3.198c4.978,0,9.026-4.05,9.026-9.027c0-8.43,4.476-13.383,13.681-15.141
		c1.379-0.264,2.722-0.504,4.021-0.735c16.044-2.84,32.635-5.778,32.635-41.858C271.021,79.564,266.972,75.515,261.995,75.515"/>
	<path fill="#CFD0D1" d="M285.157,205.716c-8.455,0-14.136-6.227-14.136-15.493V50.274c0-8.542,6.342-15.491,14.136-15.491h7.338
		c7.793,0,14.134,6.949,14.134,15.491v139.949c0,8.543-6.341,15.493-14.134,15.493H285.157 M292.495,16.728h-7.338
		c-17.749,0-32.189,15.049-32.189,33.546v34.268c0-4.978,4.05-9.027,9.027-9.027s9.026,4.049,9.026,9.027
		c0,24.884-7.893,34.003-18.054,38.199v67.482c0,18.498,14.44,33.547,32.189,33.547h7.338c17.748,0,32.188-15.049,32.188-33.547
		V50.274C324.682,31.776,310.243,16.728,292.495,16.728"/>
	<path fill="#87888C" d="M261.995,75.515c-4.978,0-9.027,4.049-9.027,9.027v38.199c10.161-4.195,18.054-13.314,18.054-38.199
		C271.021,79.564,266.972,75.515,261.995,75.515"/>
	<path fill="#8C8D91" d="M202.787,214.742v-9.026h-5.612c-7.793,0-14.134-6.95-14.134-15.493v-45.621
		c0-9.099,6.118-16.749,13.931-17.415l5.815-0.502v-18.122l-0.044,0.002l-7.313,0.631c-16.736,1.433-29.815,16.108-30.418,34.064
		c-0.017,0.22-0.024,0.448-0.024,0.675v46.287c0,18.498,14.439,33.547,32.188,33.547h7.338c1.618,0,3.209-0.128,4.764-0.37
		C205.531,222.3,202.787,218.838,202.787,214.742z"/>
	<path fill="#8C8D91" d="M220.84,50.215v95.848c0.973,6.467,5.204,9.978,14.078,12.202c0.606,0.152,1.2,0.334,1.786,0.536V50.274
		c0-13.175-7.33-24.595-17.96-30.08c1.2,1.521,1.927,3.427,1.939,5.501L220.84,50.215z"/>
	<path fill="#8C8D91" d="M209.177,17.084c-1.523-0.231-3.08-0.356-4.665-0.356h-28.49c-4.978,0-9.026,4.05-9.026,9.028
		c0,4.978,4.049,9.027,9.026,9.027h26.666l-0.058-8.968C202.604,21.678,205.382,18.172,209.177,17.084"/>
	<path fill="#8C8D91" d="M231.06,175.901c-3.855-0.83-7.257-2.019-10.22-3.563v42.404c0,2.032-0.683,3.902-1.819,5.413
		c10.479-5.539,17.684-16.872,17.684-29.933V179.85C234.622,177.688,232.743,176.265,231.06,175.901z"/>
	<path fill="#595959" d="M288.153,205.801c-8.98,0-10.954-1.541-16.205-8.721l-0.003,0.002c-3.373-4.355-6.357-8.441-9.242-12.393
		c-9.51-13.022-16.537-22.636-25.998-25.889c-0.586-0.202-1.18-0.384-1.786-0.536c-8.874-2.225-13.105-5.735-14.078-12.202V50.215
		l-0.156-24.519c-0.013-2.074-0.739-3.98-1.939-5.501c-1.662-2.105-4.238-3.467-7.142-3.467c-0.842,0.005-1.653,0.135-2.426,0.356
		c-3.795,1.088-6.573,4.594-6.547,8.731l0.058,8.968l0.099,15.491v58.289v18.122v79.032v9.026c0,4.096,2.744,7.558,6.489,8.657
		c0.806,0.237,1.656,0.37,2.538,0.37c2.946,0,5.559-1.425,7.207-3.614c1.137-1.511,1.819-3.381,1.819-5.413v-42.404
		c2.963,1.545,6.364,2.733,10.22,3.563c1.683,0.363,3.562,1.787,5.645,3.948c3.051,3.165,6.544,7.926,10.535,13.375l11.79,16.533
		c7.838,10.314,15.735,14.175,29.061,14.175c0.096,0,0.192-0.001,0.289-0.001c5.062,0,9.026-3.8,9.026-8.651
		C297.406,210.23,293.082,205.801,288.153,205.801z"/>
	<path fill="#595959" d="M78.878,190.229v-45.69c0-8.268-5.061-15.322-11.845-17.042c-2.419,4.72-3.868,10.086-4.058,15.786
		c-0.015,0.221-0.023,0.441-0.023,0.662v46.284c0,5.531,1.299,10.749,3.583,15.354C73.487,204.609,78.878,198.103,78.878,190.229z"
		/>
	<path fill="#595959" d="M102.479,16.73H81.722c4.978,0,9.027,4.05,9.027,9.028c0,4.958-4.019,8.992-8.969,9.024h20.7
		c7.793,0,14.134,6.951,14.134,15.494v42.881c0,3.945-1.705,7.905-4.677,10.863c-2.885,2.87-6.66,4.516-10.405,4.516l-0.104,0
		c-0.26,0-0.48,0.011-0.719,0.032l-7.323,0.628c-4.856,0.418-9.4,1.958-13.424,4.361c5.422,3.282,9.896,8.159,12.889,13.999
		c0.679-0.172,1.368-0.309,2.078-0.37l6.95-0.595c5.081-0.051,10.12-1.364,14.737-3.821v67.458c0,8.543-6.34,15.493-14.134,15.493
		h-7.338c-0.609,0-1.204-0.057-1.793-0.139c-2.991,6.027-7.678,10.996-13.406,14.208c4.53,2.54,9.705,3.984,15.199,3.984h7.338
		c17.749,0,32.188-15.049,32.188-33.547V50.277C134.667,31.779,120.228,16.73,102.479,16.73z"/>
	<path fill="#8C8D91" d="M93.348,205.583c2.285-4.604,3.584-9.823,3.584-15.354v-45.69c0-6.114-1.484-11.909-4.084-16.982
		c-2.992-5.84-7.466-10.717-12.889-13.999c-4.034-2.441-8.589-4.003-13.444-4.419c-0.688-0.065-1.388-0.141-2.092-0.218
		c-2.01-0.219-4.089-0.445-6.124-0.445c-3.695,0-7.465-1.644-10.345-4.509c-2.976-2.958-4.683-6.918-4.683-10.866V50.277
		c0-8.543,6.341-15.494,14.135-15.494l24.315,0.003l0.058-0.003c4.951-0.032,8.969-4.066,8.969-9.024
		c0-4.979-4.049-9.028-9.027-9.028h-5.724H57.407c-17.749,0-32.189,15.049-32.189,33.546v42.824c0,8.716,3.646,17.342,10.002,23.667
		c6.16,6.125,14.462,9.68,22.789,9.761l6.948,0.598c0.709,0.061,1.398,0.198,2.077,0.37c6.784,1.72,11.845,8.773,11.845,17.042
		v45.69c0,7.874-5.391,14.381-12.342,15.354c-0.59,0.083-1.188,0.14-1.798,0.14c-4.064,0.014-8.118,0.014-12.192,0
		c-7.133,0-14.134-8.938-14.134-18.043v-22.396c0-4.978-4.049-9.026-9.027-9.026s-9.027,4.049-9.027,9.026v22.396
		c0,19.229,15.041,36.097,32.192,36.097c4.063-0.013,8.122-0.013,12.188,0h0.005c5.494,0,10.669-1.444,15.199-3.984
		C85.67,216.579,90.357,211.61,93.348,205.583z"/>
	<path fill="#CFD0D1" d="M175.786,16.73h-2.231c-17.748,0-32.188,15.049-32.188,33.546v164.465c0,4.978,4.05,9.027,9.027,9.027
		s9.027-4.05,9.027-9.027V50.277c0-8.543,6.34-15.494,14.133-15.494h2.468c-4.978,0-9.026-4.049-9.026-9.027
		C166.996,20.856,170.917,16.856,175.786,16.73"/>
	<path fill="#ACAFB0" d="M180.893,16.73h-5.107c-4.868,0.126-8.79,4.126-8.79,9.025c0,4.978,4.049,9.027,9.026,9.027h4.871
		c4.978,0,9.026-4.048,9.026-9.024C189.919,20.78,185.871,16.73,180.893,16.73"/>
	<path fill="#8C8D91" d="M344.182,202.881c-5.905,0-10.709,4.805-10.709,10.71s4.804,10.71,10.709,10.71s10.71-4.805,10.71-10.71
		S350.087,202.881,344.182,202.881z"/>
</g>
</svg>
